<svg xmlns="http://www.w3.org/2000/svg" viewBox="0 0 50 50" id="ai-robot"><g><rect width="30" height="18" x="10" y="7" fill="#69b0c9" rx="2"></rect><circle cx="18" cy="16" r="4" fill="#e8ebf7"></circle><circle cx="32" cy="16" r="4" fill="#e8ebf7"></circle><rect width="10" height="10" x="20" y="37" fill="#f2876a" rx="2"></rect><rect width="10" height="10" x="37" y="37" fill="#f2876a" rx="2"></rect><rect width="10" height="10" x="3" y="37" fill="#f2876a" rx="2"></rect><path fill="#4e8396" d="M40,11h3a2,2,0,0,1,2,2v6a2,2,0,0,1-2,2H40a0,0,0,0,1,0,0V11A0,0,0,0,1,40,11Z"></path><path fill="#4e8396" d="M5,11H8a2,2,0,0,1,2,2v6a2,2,0,0,1-2,2H5a0,0,0,0,1,0,0V11A0,0,0,0,1,5,11Z" transform="rotate(180 7.5 16)"></path><path d="M18,21a5.00831,5.00831,0,0,0,4.8989-4h4.2022a5,5,0,1,0,0-2H22.8989A5,5,0,1,0,18,21Zm14-8a3,3,0,1,1-3,3A3.00328,3.00328,0,0,1,32,13ZM18,13a3,3,0,1,1-3,3A3.00328,3.00328,0,0,1,18,13Z"></path><path d="M45,36H43V34a3.00328,3.00328,0,0,0-3-3H38a1.00094,1.00094,0,0,1-1-1V26h1a3.00328,3.00328,0,0,0,3-3V22h2a3.00328,3.00328,0,0,0,3-3V13a3.00328,3.00328,0,0,0-3-3H41V9a3.00328,3.00328,0,0,0-3-3H36V3a1,1,0,0,0-2,0V6H16V3a1,1,0,0,0-2,0V6H12A3.00328,3.00328,0,0,0,9,9v1H7a3.00328,3.00328,0,0,0-3,3v6a3.00328,3.00328,0,0,0,3,3H9v1a3.00328,3.00328,0,0,0,3,3h1v4a1.00094,1.00094,0,0,1-1,1H10a3.00328,3.00328,0,0,0-3,3v2H5a3.00328,3.00328,0,0,0-3,3v6a3.00328,3.00328,0,0,0,3,3h6a3.00328,3.00328,0,0,0,3-3V39a3.00328,3.00328,0,0,0-3-3H9V34a1.00094,1.00094,0,0,1,1-1h2a3.00328,3.00328,0,0,0,3-3V26h9V36H22a3.00328,3.00328,0,0,0-3,3v6a3.00328,3.00328,0,0,0,3,3h6a3.00328,3.00328,0,0,0,3-3V39a3.00328,3.00328,0,0,0-3-3H26V26h9v4a3.00328,3.00328,0,0,0,3,3h2a1.00094,1.00094,0,0,1,1,1v2H39a3.00328,3.00328,0,0,0-3,3v6a3.00328,3.00328,0,0,0,3,3h6a3.00328,3.00328,0,0,0,3-3V39A3.00328,3.00328,0,0,0,45,36ZM12,39v6a1.00094,1.00094,0,0,1-1,1H5a1.00094,1.00094,0,0,1-1-1V39a1.00094,1.00094,0,0,1,1-1h6A1.00094,1.00094,0,0,1,12,39Zm17,0v6a1.00094,1.00094,0,0,1-1,1H22a1.00094,1.00094,0,0,1-1-1V39a1.00094,1.00094,0,0,1,1-1h6A1.00094,1.00094,0,0,1,29,39ZM43,12a1.00094,1.00094,0,0,1,1,1v6a1.00094,1.00094,0,0,1-1,1H41V12ZM7,20a1.00094,1.00094,0,0,1-1-1V13a1.00094,1.00094,0,0,1,1-1H9v8Zm4,3V9a1.00094,1.00094,0,0,1,1-1H38a1.00094,1.00094,0,0,1,1,1V23a1.00094,1.00094,0,0,1-1,1H12A1.00094,1.00094,0,0,1,11,23ZM46,45a1.00094,1.00094,0,0,1-1,1H39a1.00094,1.00094,0,0,1-1-1V39a1.00094,1.00094,0,0,1,1-1h6a1.00094,1.00094,0,0,1,1,1Z"></path></g></svg>